<svg width="28" height="28" viewBox="0 0 28 28" fill="none" xmlns="http://www.w3.org/2000/svg">
<g clip-path="url(#clip0_9_89)">
<path d="M14 28C11.2311 28 8.52431 27.1789 6.22202 25.6406C3.91973 24.1022 2.12532 21.9157 1.06569 19.3576C0.00606604 16.7994 -0.271181 13.9845 0.269012 11.2687C0.809206 8.553 2.14258 6.05844 4.10051 4.10051C6.05845 2.14257 8.55301 0.8092 11.2687 0.269007C13.9845 -0.271186 16.7994 0.00606047 19.3576 1.06569C21.9157 2.12531 24.1022 3.91973 25.6406 6.22202C27.1789 8.5243 28 11.2311 28 14C27.996 17.7118 26.5197 21.2704 23.8951 23.8951C21.2704 26.5197 17.7118 27.996 14 28ZM14 3.5C11.9233 3.5 9.89323 4.11581 8.16652 5.26957C6.4398 6.42332 5.09399 8.0632 4.29927 9.98182C3.50455 11.9004 3.29662 14.0116 3.70176 16.0484C4.10691 18.0852 5.10693 19.9562 6.57538 21.4246C8.04384 22.8931 9.91476 23.8931 11.9516 24.2982C13.9884 24.7034 16.0996 24.4955 18.0182 23.7007C19.9368 22.906 21.5767 21.5602 22.7304 19.8335C23.8842 18.1068 24.5 16.0767 24.5 14C24.4966 11.2163 23.3893 8.54753 21.4209 6.57913C19.4525 4.61073 16.7837 3.5034 14 3.5Z" fill="#090041"/>
<path d="M13.4691 16.8642H13.1191C12.6606 16.8755 12.2144 16.715 11.868 16.4144C11.5216 16.1138 11.3 15.6946 11.2466 15.239C11.2161 14.7833 11.3649 14.3337 11.6614 13.9862C11.9578 13.6388 12.3784 13.421 12.8333 13.3794V7.95436C12.8333 7.49023 13.0176 7.04511 13.3458 6.71692C13.674 6.38873 14.1191 6.20436 14.5833 6.20436C15.0474 6.20436 15.4925 6.38873 15.8207 6.71692C16.1489 7.04511 16.3333 7.49023 16.3333 7.95436V14C16.3333 14.7596 16.0315 15.4882 15.4944 16.0253C14.9572 16.5624 14.2287 16.8642 13.4691 16.8642Z" fill="#090041"/>
<path d="M13.8018 18.123C14.1978 18.123 14.5848 18.2404 14.9141 18.4604C15.2433 18.6803 15.4999 18.993 15.6514 19.3588C15.8029 19.7246 15.8426 20.1272 15.7653 20.5155C15.6881 20.9039 15.4974 21.2606 15.2174 21.5406C14.9374 21.8206 14.5807 22.0112 14.1924 22.0885C13.804 22.1657 13.4015 22.1261 13.0357 21.9746C12.6699 21.823 12.3572 21.5664 12.1372 21.2372C11.9172 20.908 11.7998 20.5209 11.7998 20.125C11.7997 19.862 11.8513 19.6016 11.9519 19.3586C12.0524 19.1157 12.1999 18.8949 12.3858 18.709C12.5718 18.523 12.7925 18.3756 13.0355 18.275C13.2785 18.1745 13.5389 18.1228 13.8018 18.123Z" fill="#090041"/>
</g>
<defs>
<clipPath id="clip0_9_89">
<rect width="28" height="28" fill="white" transform="matrix(1 0 0 -1 0 28)"/>
</clipPath>
</defs>
</svg>
