<svg width="28" height="28" viewBox="0 0 28 28" fill="none" xmlns="http://www.w3.org/2000/svg">
<g clip-path="url(#clip0_9_85)">
<path d="M14 0C11.2311 0 8.52431 0.821086 6.22202 2.35943C3.91973 3.89777 2.12532 6.08427 1.06569 8.64243C0.006066 11.2006 -0.271181 14.0155 0.269012 16.7313C0.809205 19.447 2.14258 21.9416 4.10051 23.8995C6.05845 25.8574 8.55301 27.1908 11.2687 27.731C13.9845 28.2712 16.7994 27.9939 19.3576 26.9343C21.9157 25.8747 24.1022 24.0803 25.6406 21.778C27.1789 19.4757 28 16.7689 28 14C27.996 10.2882 26.5197 6.72958 23.8951 4.10494C21.2704 1.4803 17.7118 0.0040146 14 0ZM14 3.5C16.0719 3.50199 18.097 4.11609 19.821 5.26517C21.5451 6.41425 22.8912 8.0471 23.6903 9.95867L16.3613 11.4252C14.7478 11.7472 13.0865 11.7472 11.473 11.4252L4.29684 9.989C5.09229 8.06984 6.43841 6.4293 8.16531 5.27443C9.89222 4.11956 11.9225 3.50211 14 3.5ZM3.50701 14.3582L7.18667 15.0943C7.85836 15.2287 8.49223 15.5093 9.04329 15.9162C9.59434 16.3231 10.0491 16.8463 10.3752 17.4487L11.1043 18.7938C11.4725 19.4748 11.6657 20.2364 11.6667 21.0105V24.234C9.40907 23.7158 7.3856 22.467 5.91023 20.6813C4.43487 18.8957 3.5901 16.673 3.50701 14.3582ZM16.3333 24.2387V21.0152C16.3343 20.2411 16.5276 19.4794 16.8957 18.7985L17.6248 17.4533C17.9509 16.8509 18.4057 16.3277 18.9567 15.9208C19.5078 15.514 20.1417 15.2334 20.8133 15.099L24.493 14.3628C24.4099 16.6777 23.5651 18.9003 22.0898 20.686C20.6144 22.4717 18.5909 23.7205 16.3333 24.2387Z" fill="#090041"/>
</g>
<defs>
<clipPath id="clip0_9_85">
<rect width="28" height="28" fill="white"/>
</clipPath>
</defs>
</svg>
