<svg width="28" height="29" viewBox="0 0 28 29" fill="none" xmlns="http://www.w3.org/2000/svg">
<path d="M25.6667 6.73847V3.07114C25.6667 2.10415 24.8838 1.32146 23.9167 1.32146C22.9495 1.32146 22.1667 2.10415 22.1667 3.07114V4.34141L17.5887 1.25264C15.4082 -0.21826 12.5907 -0.217093 10.4113 1.25264L2.828 6.36871C1.057 7.56315 0 9.55079 0 11.6866V21.7344C0 25.2723 2.87817 28.1499 6.41667 28.1499H21.5833C25.1218 28.1499 28 25.2723 28 21.7344V11.6866C28 9.75725 27.1378 7.95042 25.6667 6.73847ZM24.5 21.7344C24.5 23.3418 23.191 24.6505 21.5833 24.6505H19.8333C19.8333 21.43 17.2212 18.8183 14 18.8183C10.7788 18.8183 8.16667 21.43 8.16667 24.6505H6.41667C4.809 24.6505 3.5 23.3418 3.5 21.7344V11.6866C3.5 10.7161 3.98067 9.81208 4.78567 9.26851L12.369 4.15244C12.8648 3.81767 13.433 3.65087 14 3.65087C14.567 3.65087 15.1363 3.81884 15.631 4.15244L23.2143 9.26851C24.0193 9.81208 24.5 10.7161 24.5 11.6866V21.7344ZM17.5 12.986C17.5 14.9165 15.9308 16.4854 14 16.4854C12.0692 16.4854 10.5 14.9165 10.5 12.986C10.5 11.0555 12.0692 9.48664 14 9.48664C15.9308 9.48664 17.5 11.0555 17.5 12.986Z" fill="#090041"/>
</svg>
