<svg width="20" height="21" viewBox="0 0 20 21" fill="none" xmlns="http://www.w3.org/2000/svg">
<path d="M19.99 19.0104L15.0342 14.0521C16.055 12.6681 16.6667 10.9647 16.6667 9.11631C16.6667 4.51901 12.9283 0.778809 8.33333 0.778809C3.73833 0.778809 0 4.51901 0 9.11631C0 13.7136 3.73833 17.4538 8.33333 17.4538C10.1808 17.4538 11.8833 16.8418 13.2667 15.8205L18.2225 20.7788L19.99 19.0104ZM8.33333 14.9526C5.1175 14.9526 2.5 12.3346 2.5 9.11631C2.5 5.89804 5.1175 3.28006 8.33333 3.28006C11.5492 3.28006 14.1667 5.89804 14.1667 9.11631C14.1667 12.3346 11.5492 14.9526 8.33333 14.9526ZM7.495 11.6126C7.495 11.6126 8.70143 11.1521 9.16167 11.6126C9.6219 12.073 9.16167 13.2801 9.16167 13.2801H7.495V11.6126Z" fill="#4A4C5E"/>
</svg>
