<svg width="25" height="26" viewBox="0 0 25 26" fill="none" xmlns="http://www.w3.org/2000/svg">
<path d="M12.5 25.6072C5.60729 25.6072 0 19.9999 0 13.1072C0 6.21447 5.60729 0.607178 12.5 0.607178C19.3927 0.607178 25 6.21447 25 13.1072C25 19.9999 19.3927 25.6072 12.5 25.6072ZM12.5 3.73218C7.33125 3.73218 3.125 7.93739 3.125 13.1072C3.125 18.277 7.33125 22.4822 12.5 22.4822C17.6687 22.4822 21.875 18.277 21.875 13.1072C21.875 7.93739 17.6698 3.73218 12.5 3.73218ZM16.6667 12.0655H13.5417V6.85718H10.4167V15.1905H16.6667V12.0655Z" fill="#4A4C5E"/>
<path d="M12.5 25.6072C5.60729 25.6072 0 19.9999 0 13.1072C0 6.21447 5.60729 0.607178 12.5 0.607178C19.3927 0.607178 25 6.21447 25 13.1072C25 19.9999 19.3927 25.6072 12.5 25.6072ZM12.5 3.73218C7.33125 3.73218 3.125 7.93739 3.125 13.1072C3.125 18.277 7.33125 22.4822 12.5 22.4822C17.6687 22.4822 21.875 18.277 21.875 13.1072C21.875 7.93739 17.6698 3.73218 12.5 3.73218ZM16.6667 12.0655H13.5417V6.85718H10.4167V15.1905H16.6667V12.0655Z" stroke="#4A4C5E"/>
</svg>
