<svg  id="vehicles-icon" width="27" height="28" viewBox="0 0 27 28" fill="none" xmlns="http://www.w3.org/2000/svg">
<path d="M0 12.134V9.18834C0 8.7196 0.17779 8.27005 0.494257 7.93859C0.810725 7.60713 1.23995 7.42092 1.6875 7.42092C1.6875 7.42092 2.76637 7.42092 2.8125 7.42092C3.50859 5.80069 4.33152 4.24358 5.27287 2.76554C5.83497 2.00001 6.61388 1.44033 7.49812 1.16661C9.47925 0.158004 17.5207 0.158004 19.5019 1.16661C20.3861 1.44033 21.165 2.00001 21.7271 2.76554C22.6685 4.24358 23.4914 5.80069 24.1875 7.42092C24.2336 7.42092 25.3125 7.42092 25.3125 7.42092C25.7601 7.42092 26.1893 7.60713 26.5057 7.93859C26.8222 8.27005 27 8.7196 27 9.18834V12.134C22.5299 11.4283 18.02 11.0347 13.5 10.9558C8.98004 11.0347 4.47009 11.4283 0 12.134ZM27 14.5177V16.8472C27 18.0972 26.5259 19.296 25.682 20.1798C24.8381 21.0637 23.6935 21.5603 22.5 21.5603H4.5C3.30653 21.5603 2.16193 21.0637 1.31802 20.1798C0.474106 19.296 0 18.0972 0 16.8472V14.5224C4.46948 13.8067 8.9794 13.4024 13.5 13.3123C18.0206 13.4024 22.5305 13.8067 27 14.5224V14.5177ZM6.75 18.0254C6.75 17.7129 6.63147 17.4132 6.42049 17.1923C6.20952 16.9713 5.92337 16.8472 5.625 16.8472C5.32663 16.8472 5.04048 16.9713 4.82951 17.1923C4.61853 17.4132 4.5 17.7129 4.5 18.0254C4.5 18.3379 4.61853 18.6376 4.82951 18.8586C5.04048 19.0796 5.32663 19.2037 5.625 19.2037C5.92337 19.2037 6.20952 19.0796 6.42049 18.8586C6.63147 18.6376 6.75 18.3379 6.75 18.0254ZM22.5 18.0254C22.5 17.7129 22.3815 17.4132 22.1705 17.1923C21.9595 16.9713 21.6734 16.8472 21.375 16.8472C21.0766 16.8472 20.7905 16.9713 20.5795 17.1923C20.3685 17.4132 20.25 17.7129 20.25 18.0254C20.25 18.3379 20.3685 18.6376 20.5795 18.8586C20.7905 19.0796 21.0766 19.2037 21.375 19.2037C21.6734 19.2037 21.9595 19.0796 22.1705 18.8586C22.3815 18.6376 22.5 18.3379 22.5 18.0254ZM7.80975 23.9169C8.47012 28.5758 1.65375 28.5734 2.31525 23.9169H7.80975ZM24.6847 23.9169C25.3451 28.5758 18.5288 28.5734 19.1903 23.9169H24.6847Z" fill="#090041"/>
</svg>
