<svg width="27" height="28" viewBox="0 0 27 28" fill="none" xmlns="http://www.w3.org/2000/svg">
<path d="M2.8125 8.47366H3.47126L3.7313 7.86839C4.40165 6.30805 5.19314 4.80853 6.09759 3.38493C6.53477 2.80038 7.12939 2.3803 7.79383 2.17463L7.87557 2.14932L7.95182 2.1105C8.27447 1.94624 8.99057 1.77049 10.0486 1.64505C11.0646 1.52461 12.277 1.46289 13.5 1.46289C14.723 1.46289 15.9354 1.52461 16.9514 1.64505C18.0094 1.77049 18.7255 1.94624 19.0482 2.1105L19.1244 2.14932L19.2062 2.17463C19.8706 2.3803 20.4652 2.80038 20.9024 3.38493C21.8069 4.80854 22.5983 6.30805 23.2687 7.86839L23.5287 8.47366H24.1875H24.1878H24.1881H24.1884H24.1888H24.1891H24.1895H24.19H24.1904H24.1909H24.1914H24.1919H24.1924H24.193H24.1936H24.1942H24.1948H24.1954H24.1961H24.1968H24.1975H24.1982H24.199H24.1998H24.2006H24.2014H24.2022H24.2031H24.204H24.2049H24.2058H24.2068H24.2077H24.2087H24.2097H24.2108H24.2118H24.2129H24.214H24.2151H24.2162H24.2174H24.2185H24.2197H24.2209H24.2222H24.2234H24.2247H24.226H24.2273H24.2286H24.2299H24.2313H24.2327H24.2341H24.2355H24.2369H24.2384H24.2399H24.2414H24.2429H24.2444H24.2459H24.2475H24.2491H24.2507H24.2523H24.2539H24.2556H24.2572H24.2589H24.2606H24.2624H24.2641H24.2658H24.2676H24.2694H24.2712H24.273H24.2749H24.2767H24.2786H24.2805H24.2824H24.2843H24.2862H24.2881H24.2901H24.2921H24.2941H24.2961H24.2981H24.3001H24.3022H24.3043H24.3064H24.3084H24.3106H24.3127H24.3148H24.317H24.3192H24.3213H24.3235H24.3257H24.328H24.3302H24.3325H24.3347H24.337H24.3393H24.3416H24.3439H24.3463H24.3486H24.351H24.3533H24.3557H24.3581H24.3605H24.3629H24.3654H24.3678H24.3703H24.3727H24.3752H24.3777H24.3802H24.3827H24.3853H24.3878H24.3904H24.3929H24.3955H24.3981H24.4007H24.4033H24.4059H24.4085H24.4112H24.4138H24.4165H24.4191H24.4218H24.4245H24.4272H24.4299H24.4326H24.4354H24.4381H24.4409H24.4436H24.4464H24.4492H24.452H24.4548H24.4576H24.4604H24.4632H24.466H24.4689H24.4717H24.4746H24.4774H24.4803H24.4832H24.4861H24.489H24.4919H24.4948H24.4977H24.5006H24.5036H24.5065H24.5095H24.5124H24.5154H24.5184H24.5213H24.5243H24.5273H24.5303H24.5333H24.5363H24.5394H24.5424H24.5454H24.5485H24.5515H24.5545H24.5576H24.5607H24.5637H24.5668H24.5699H24.573H24.576H24.5791H24.5822H24.5853H24.5884H24.5916H24.5947H24.5978H24.6009H24.6041H24.6072H24.6103H24.6135H24.6166H24.6198H24.6229H24.6261H24.6292H24.6324H24.6356H24.6387H24.6419H24.6451H24.6483H24.6515H24.6547H24.6578H24.661H24.6642H24.6674H24.6706H24.6738H24.677H24.6802H24.6835H24.6867H24.6899H24.6931H24.6963H24.6995H24.7028H24.706H24.7092H24.7124H24.7156H24.7189H24.7221H24.7253H24.7285H24.7318H24.735H24.7382H24.7415H24.7447H24.7479H24.7512H24.7544H24.7576H24.7608H24.7641H24.7673H24.7705H24.7738H24.777H24.7802H24.7834H24.7867H24.7899H24.7931H24.7963H24.7995H24.8028H24.806H24.8092H24.8124H24.8156H24.8188H24.822H24.8252H24.8284H24.8316H24.8348H24.838H24.8412H24.8444H24.8476H24.8508H24.854H24.8571H24.8603H24.8635H24.8667H24.8698H24.873H24.8761H24.8793H24.8824H24.8856H24.8887H24.8919H24.895H24.8981H24.9013H24.9044H24.9075H24.9106H24.9137H24.9168H24.9199H24.923H24.9261H24.9292H24.9322H24.9353H24.9384H24.9414H24.9445H24.9475H24.9506H24.9536H24.9566H24.9597H24.9627H24.9657H24.9687H24.9717H24.9747H24.9777H24.9807H24.9836H24.9866H24.9895H24.9925H24.9954H24.9984H25.0013H25.0042H25.0071H25.01H25.0129H25.0158H25.0187H25.0216H25.0244H25.0273H25.0301H25.033H25.0358H25.0386H25.0414H25.0442H25.047H25.0498H25.0526H25.0554H25.0581H25.0609H25.0636H25.0663H25.069H25.0718H25.0745H25.0771H25.0798H25.0825H25.0851H25.0878H25.0904H25.0931H25.0957H25.0983H25.1009H25.1035H25.106H25.1086H25.1111H25.1137H25.1162H25.1187H25.1212H25.1237H25.1262H25.1287H25.1311H25.1336H25.136H25.1384H25.1408H25.1432H25.1456H25.148H25.1503H25.1527H25.155H25.1573H25.1596H25.1619H25.1642H25.1664H25.1687H25.1709H25.1731H25.1754H25.1775H25.1797H25.1819H25.184H25.1862H25.1883H25.1904H25.1925H25.1946H25.1967H25.1987H25.2007H25.2028H25.2048H25.2068H25.2087H25.2107H25.2126H25.2146H25.2165H25.2184H25.2202H25.2221H25.224H25.2258H25.2276H25.2294H25.2312H25.233H25.2347H25.2364H25.2382H25.2399H25.2415H25.2432H25.2448H25.2465H25.2481H25.2497H25.2513H25.2528H25.2544H25.2559H25.2574H25.2589H25.2604H25.2618H25.2632H25.2647H25.2661H25.2674H25.2688H25.2701H25.2715H25.2728H25.274H25.2753H25.2765H25.2778H25.279H25.2802H25.2813H25.2825H25.2836H25.2847H25.2858H25.2869H25.2879H25.2889H25.2899H25.2909H25.2919H25.2928H25.2938H25.2947H25.2955H25.2964H25.2972H25.298H25.2988H25.2996H25.3004H25.3011H25.3018H25.3025H25.3032H25.3038H25.3044H25.305H25.3056H25.3062H25.3067H25.3072H25.3077H25.3082H25.3086H25.309H25.3094H25.3098H25.3101H25.3104H25.3107H25.311H25.3113H25.3115H25.3117H25.3119H25.3121H25.3122H25.3123H25.3124H25.3125H25.3125C25.4795 8.47366 25.6496 8.54272 25.7825 8.68189C25.9169 8.82263 26 9.023 26 9.24108V11.0235C21.8631 10.4205 17.6945 10.0816 13.5175 10.0087L13.5 10.0083L13.4825 10.0087C9.30548 10.0816 5.13693 10.4205 1 11.0235V9.24108C1 9.023 1.08315 8.82263 1.21753 8.68189C1.35041 8.54272 1.52049 8.47366 1.6875 8.47366H1.68755H1.68761H1.6877H1.68781H1.68794H1.6881H1.68828H1.68849H1.68872H1.68897H1.68925H1.68955H1.68988H1.69022H1.6906H1.69099H1.69141H1.69185H1.69231H1.6928H1.69331H1.69384H1.69439H1.69497H1.69557H1.69619H1.69683H1.6975H1.69819H1.6989H1.69963H1.70038H1.70115H1.70195H1.70277H1.70361H1.70447H1.70535H1.70625H1.70717H1.70811H1.70908H1.71006H1.71107H1.71209H1.71314H1.71421H1.71529H1.7164H1.71753H1.71867H1.71984H1.72103H1.72223H1.72346H1.7247H1.72596H1.72725H1.72855H1.72987H1.73121H1.73257H1.73395H1.73534H1.73676H1.73819H1.73964H1.74111H1.7426H1.74411H1.74563H1.74718H1.74874H1.75031H1.75191H1.75352H1.75515H1.7568H1.75846H1.76015H1.76184H1.76356H1.76529H1.76704H1.76881H1.77059H1.77239H1.77421H1.77604H1.77789H1.77975H1.78163H1.78353H1.78544H1.78737H1.78931H1.79127H1.79324H1.79523H1.79724H1.79926H1.80129H1.80335H1.80541H1.80749H1.80958H1.81169H1.81382H1.81596H1.81811H1.82027H1.82245H1.82465H1.82686H1.82908H1.83132H1.83357H1.83583H1.83811H1.8404H1.8427H1.84502H1.84735H1.84969H1.85205H1.85441H1.85679H1.85919H1.86159H1.86401H1.86644H1.86889H1.87134H1.87381H1.87629H1.87878H1.88128H1.8838H1.88633H1.88886H1.89141H1.89397H1.89654H1.89913H1.90172H1.90433H1.90694H1.90957H1.9122H1.91485H1.91751H1.92018H1.92285H1.92554H1.92824H1.93095H1.93367H1.9364H1.93913H1.94188H1.94464H1.94741H1.95018H1.95297H1.95576H1.95856H1.96138H1.9642H1.96703H1.96986H1.97271H1.97557H1.97843H1.9813H1.98418H1.98707H1.98996H1.99287H1.99578H1.9987H2.00163H2.00456H2.0075H2.01045H2.01341H2.01637H2.01934H2.02232H2.02531H2.0283H2.0313H2.0343H2.03731H2.04033H2.04335H2.04638H2.04942H2.05246H2.05551H2.05856H2.06162H2.06469H2.06776H2.07083H2.07391H2.077H2.08009H2.08319H2.08629H2.0894H2.09251H2.09562H2.09874H2.10187H2.105H2.10813H2.11127H2.11441H2.11756H2.12071H2.12386H2.12702H2.13018H2.13335H2.13652H2.13969H2.14286H2.14604H2.14922H2.15241H2.15559H2.15878H2.16198H2.16517H2.16837H2.17157H2.17477H2.17797H2.18118H2.18439H2.1876H2.19081H2.19403H2.19724H2.20046H2.20368H2.2069H2.21012H2.21335H2.21657H2.21979H2.22302H2.22625H2.22948H2.2327H2.23593H2.23916H2.24239H2.24562H2.24885H2.25208H2.25531H2.25854H2.26177H2.265H2.26823H2.27145H2.27468H2.27791H2.28113H2.28436H2.28758H2.29081H2.29403H2.29725H2.30047H2.30369H2.3069H2.31012H2.31333H2.31654H2.31975H2.32296H2.32616H2.32937H2.33257H2.33576H2.33896H2.34215H2.34534H2.34853H2.35172H2.3549H2.35808H2.36125H2.36442H2.36759H2.37076H2.37392H2.37708H2.38023H2.38338H2.38653H2.38967H2.39281H2.39595H2.39908H2.4022H2.40533H2.40844H2.41155H2.41466H2.41776H2.42086H2.42395H2.42704H2.43012H2.4332H2.43627H2.43934H2.4424H2.44545H2.4485H2.45155H2.45458H2.45761H2.46064H2.46366H2.46667H2.46968H2.47267H2.47567H2.47865H2.48163H2.4846H2.48757H2.49053H2.49348H2.49642H2.49936H2.50228H2.50521H2.50812H2.51102H2.51392H2.51681H2.51969H2.52257H2.52543H2.52829H2.53114H2.53398H2.53681H2.53963H2.54244H2.54525H2.54804H2.55083H2.55361H2.55638H2.55913H2.56188H2.56462H2.56735H2.57007H2.57278H2.57548H2.57817H2.58085H2.58352H2.58618H2.58883H2.59147H2.5941H2.59672H2.59932H2.60192H2.6045H2.60708H2.60964H2.61219H2.61473H2.61726H2.61978H2.62228H2.62478H2.62726H2.62973H2.63218H2.63463H2.63706H2.63948H2.64189H2.64429H2.64667H2.64904H2.6514H2.65375H2.65608H2.6584H2.6607H2.663H2.66527H2.66754H2.66979H2.67203H2.67426H2.67647H2.67867H2.68085H2.68302H2.68517H2.68731H2.68944H2.69155H2.69365H2.69573H2.6978H2.69985H2.70189H2.70391H2.70592H2.70791H2.70989H2.71185H2.7138H2.71573H2.71764H2.71954H2.72143H2.72329H2.72514H2.72698H2.7288H2.7306H2.73239H2.73416H2.73591H2.73764H2.73936H2.74107H2.74275H2.74442H2.74607H2.7477H2.74932H2.75092H2.7525H2.75406H2.75561H2.75713H2.75864H2.76014H2.76161H2.76306H2.7645H2.76592H2.76732H2.7687H2.77006H2.77141H2.77273H2.77404H2.77532H2.77659H2.77784H2.77907H2.78028H2.78147H2.78264H2.78379H2.78492H2.78603H2.78712H2.78819H2.78924H2.79027H2.79128H2.79226H2.79323H2.79418H2.79511H2.79601H2.7969H2.79776H2.7986H2.79942H2.80022H2.801H2.80176H2.80249H2.80321H2.8039H2.80457H2.80521H2.80584H2.80644H2.80702H2.80758H2.80812H2.80863H2.80912H2.80959H2.81003H2.81046H2.81086H2.81123H2.81158H2.81191H2.81222H2.8125ZM13.5 14.3653C17.6839 14.4495 21.8586 14.8057 26 15.4316V16.8999C26 17.8992 25.6205 18.8488 24.9587 19.542C24.2984 20.2336 23.4129 20.613 22.5 20.613H4.5C3.58707 20.613 2.70161 20.2336 2.04129 19.542C1.37946 18.8488 1 17.8992 1 16.8999V15.4316C5.1414 14.8057 9.31608 14.4495 13.5 14.3653ZM7.75 18.0782C7.75 17.515 7.53683 16.9661 7.14377 16.5544C6.7492 16.1412 6.20391 15.8999 5.625 15.8999C5.04609 15.8999 4.5008 16.1412 4.10623 16.5544C3.71317 16.9661 3.5 17.515 3.5 18.0782C3.5 18.6413 3.71317 19.1902 4.10623 19.6019C4.5008 20.0152 5.04609 20.2565 5.625 20.2565C6.20391 20.2565 6.7492 20.0152 7.14377 19.6019C7.53683 19.1902 7.75 18.6413 7.75 18.0782ZM23.5 18.0782C23.5 17.515 23.2868 16.9661 22.8938 16.5544C22.4992 16.1412 21.9539 15.8999 21.375 15.8999C20.7961 15.8999 20.2508 16.1412 19.8562 16.5544C19.4632 16.9661 19.25 17.515 19.25 18.0782C19.25 18.6413 19.4632 19.1902 19.8562 19.6019C20.2508 20.0152 20.7961 20.2565 21.375 20.2565C21.9539 20.2565 22.4992 20.0152 22.8938 19.6019C23.2868 19.1902 23.5 18.6413 23.5 18.0782ZM3.29677 24.9696H6.82802C6.76417 25.3982 6.59493 25.702 6.40102 25.9127C6.07841 26.2632 5.58927 26.463 5.06227 26.4629C4.53526 26.4628 4.04607 26.2628 3.72348 25.9122C3.52964 25.7015 3.36054 25.3978 3.29677 24.9696ZM20.1718 24.9696H23.703C23.6392 25.3982 23.4699 25.702 23.276 25.9127C22.9534 26.2632 22.4643 26.463 21.9373 26.4629C21.4103 26.4628 20.9211 26.2628 20.5985 25.9122C20.4046 25.7015 20.2355 25.3978 20.1718 24.9696Z" fill="white" stroke="#4A4C5E" stroke-width="2"/>
</svg>
