<svg width="1816" height="217" viewBox="0 0 1816 217" fill="none" xmlns="http://www.w3.org/2000/svg">
<path d="M164 107.114C172.09 110.814 181.22 119.284 185.05 127.324C186.42 131.504 187.04 135.774 187.65 140.124C189.09 148.304 193.04 156.494 198 163.114C198.55 163.864 199.1 164.614 199.67 165.384C205.44 172.554 212.36 175.904 220.8 179.214C223 180.114 223 180.114 224 181.114C224.09 183.634 224.12 186.124 224.1 188.654C224.1 189.404 224.09 190.154 224.09 190.934C224.09 193.344 224.08 195.764 224.06 198.174C224.06 199.814 224.05 201.444 224.05 203.074C224.04 207.094 224.02 211.104 224 215.114C207.96 215.304 192.59 208.864 180 199.114C178.75 198.174 178.75 198.174 177.48 197.204C157.62 180.474 148.51 152.704 145.74 127.724C146.09 124.204 147.41 123.134 149.94 120.684C150.75 119.894 151.56 119.094 152.4 118.274C153.26 117.464 154.12 116.644 155 115.804C155.86 114.964 156.72 114.134 157.6 113.264C159.72 111.204 161.86 109.154 164 107.114Z" fill="#FF0000"/>
<path d="M464 11.1136C464.96 11.3736 465.92 11.6236 466.91 11.8836C483.91 17.2136 496.34 31.0136 506.52 44.9736C509.51 51.3036 506.2 58.5736 504.44 65.0536C504.2 65.9236 503.97 66.8036 503.73 67.7036C503.16 69.8436 502.58 71.9736 502 74.1136C479.49 71.3036 479.49 71.3036 472.81 65.0636C471.69 63.5636 470.61 62.0236 469.59 60.4536C463.96 52.1536 455.46 47.5236 446.11 44.5036C432.4 41.9736 419.86 45.4036 408.47 53.1536C396.78 62.4536 390.26 79.6836 388.41 94.1836C386.06 118.014 387.08 144.064 402.09 163.904C411.06 174.294 420.83 179.094 434.43 180.334C445.62 180.744 455.72 177.794 464 170.114C471.25 161.494 473.08 154.604 475 143.114C463.45 143.114 451.9 143.114 440 143.114C440 131.564 440 120.014 440 108.114C463.43 108.114 486.86 108.114 511 108.114C511.08 115.374 511.16 122.634 511.25 130.114C511.29 132.374 511.32 134.624 511.36 136.954C511.5 151.604 510.37 165.244 503.31 178.424C502.97 179.084 502.63 179.744 502.27 180.414C493.44 196.754 479.52 207.374 461.95 213.114C439.95 219.344 415.69 217.204 395.32 206.734C372.89 193.904 360.13 172.654 353.31 148.234C344.83 115.754 347.93 79.0936 364.74 49.7536C376.8 29.7836 393.76 16.4136 416.28 10.2136C431.99 6.50361 448.44 6.85361 464 11.1136Z" fill="#FF0000"/>
<path d="M1772.22 0C1773.18 0.01 1774.14 0.01 1775.12 0.02C1776.68 0.02 1776.68 0.02 1778.26 0.03C1779.35 0.03 1780.44 0.04 1781.56 0.05C1783.2 0.06 1783.2 0.06 1784.87 0.06C1787.58 0.08 1790.29 0.09 1793 0.11C1795 23.91 1795 23.91 1789.77 31.02C1787.83 33.23 1785.81 35.33 1783.7 37.39C1780.5 40.63 1777.73 44.25 1774.87 47.8C1773.67 49.25 1772.48 50.7 1771.28 52.15C1767.94 56.18 1764.6 60.22 1761.31 64.28C1759.47 66.53 1757.61 68.76 1755.75 70.98C1754.62 72.33 1753.49 73.69 1752.37 75.05C1751.82 75.69 1751.28 76.33 1750.72 76.99C1747.9 80.05 1747.9 80.05 1747.14 83.9C1748.34 87.02 1749.88 89.93 1751.46 92.87C1751.81 93.53 1752.16 94.18 1752.52 94.86C1753.65 96.99 1754.79 99.11 1755.93 101.24C1756.72 102.71 1757.5 104.18 1758.29 105.65C1762.59 113.69 1766.93 121.71 1771.39 129.66C1774.77 135.67 1778.04 141.73 1781.31 147.8C1787.24 158.79 1793.35 169.68 1799.53 180.53C1803.04 186.71 1806.52 192.91 1810 199.11C1810.62 200.22 1811.24 201.33 1811.88 202.47C1812.43 203.46 1812.99 204.46 1813.56 205.49C1814.03 206.34 1814.51 207.2 1815 208.07C1816 210.11 1816 210.11 1816 212.11C1810.12 212.36 1804.26 212.54 1798.38 212.66C1796.38 212.71 1794.39 212.78 1792.39 212.87C1775.98 213.56 1775.98 213.56 1771.6 210.37C1769.96 207.69 1769.02 205.08 1768 202.11C1766.76 199.76 1765.51 197.44 1764.22 195.12C1763.54 193.84 1762.86 192.56 1762.18 191.28C1760.35 187.8 1758.52 184.32 1756.68 180.85C1755.91 179.4 1755.15 177.96 1754.38 176.51C1750.6 169.37 1746.81 162.24 1743 155.11C1742.07 153.38 1742.07 153.38 1741.12 151.61C1737.43 144.73 1733.67 137.9 1729.8 131.11C1727.01 126.2 1724.43 121.21 1722 116.11C1721.34 116.11 1720.68 116.11 1720 116.11C1718.62 117.62 1717.32 119.2 1716.06 120.8C1715.25 121.81 1714.45 122.82 1713.62 123.86C1713.19 124.39 1712.76 124.93 1712.32 125.48C1710.14 128.17 1707.87 130.79 1705.62 133.43C1700.62 139.29 1695.84 145.32 1691.11 151.41C1689 154.11 1689 154.11 1688 155.11C1687.87 156.89 1687.82 158.68 1687.79 160.46C1687.76 162.17 1687.76 162.17 1687.73 163.92C1687.71 165.16 1687.7 166.4 1687.68 167.68C1687.66 168.94 1687.64 170.21 1687.62 171.51C1687.56 174.87 1687.51 178.24 1687.46 181.61C1687.41 185.04 1687.36 188.47 1687.3 191.9C1687.19 198.64 1687.09 205.38 1687 212.11C1674.79 212.11 1662.58 212.11 1650 212.11C1650 146.11 1650 80.11 1650 12.11C1662.21 12.11 1674.42 12.11 1687 12.11C1687.33 41.81 1687.66 71.51 1688 102.11C1696.43 91.99 1696.43 91.99 1704.5 81.61C1709.03 75.62 1713.69 69.8 1718.54 64.06C1721.69 60.28 1724.72 56.41 1727.75 52.53C1731.13 48.2 1734.55 43.9 1738 39.61C1741.37 35.41 1744.72 31.19 1748.04 26.94C1768.93 0.17 1768.93 0.17 1772.22 0Z" fill="#090041"/>
<path d="M1454 12.1135C1465.88 12.1135 1477.76 12.1135 1490 12.1135C1490.01 16.1235 1490.02 20.1335 1490.03 24.2635C1490.06 37.5635 1490.12 50.8535 1490.18 64.1435C1490.22 72.1935 1490.26 80.2535 1490.27 88.3035C1490.28 95.3335 1490.31 102.354 1490.35 109.384C1490.38 113.094 1490.39 116.814 1490.39 120.524C1489.71 147.284 1489.71 147.284 1501.12 170.674C1512.65 180.444 1526.58 181.104 1541 180.114C1550.73 178.814 1559.97 175.194 1566.38 167.494C1574.79 154.934 1574.13 139.594 1574.21 125.074C1574.22 123.844 1574.23 122.614 1574.24 121.344C1574.26 118.014 1574.28 114.684 1574.3 111.354C1574.33 107.854 1574.35 104.364 1574.38 100.864C1574.43 94.2635 1574.47 87.6635 1574.52 81.0635C1574.57 73.5335 1574.62 66.0135 1574.68 58.4835C1574.79 43.0335 1574.9 27.5735 1575 12.1135C1586.88 12.1135 1598.76 12.1135 1611 12.1135C1611.07 29.4235 1611.12 46.7335 1611.16 64.0335C1611.17 72.0735 1611.19 80.1135 1611.23 88.1535C1611.26 95.1635 1611.28 102.184 1611.28 109.194C1611.29 112.904 1611.3 116.604 1611.32 120.314C1611.47 146.374 1611.11 175.104 1591.92 195.354C1572.79 212.894 1548.84 216.894 1523.84 216.254C1503.37 215.264 1484.06 207.154 1470 192.114C1467.33 188.604 1465.11 184.974 1463 181.114C1462.31 179.904 1462.31 179.904 1461.6 178.674C1452.34 160.744 1453.44 139.804 1453.59 120.224C1453.62 116.404 1453.62 112.594 1453.63 108.774C1453.64 101.584 1453.67 94.4035 1453.71 87.2135C1453.76 79.0135 1453.78 70.8135 1453.8 62.6135C1453.84 45.7835 1453.91 28.9435 1454 12.1135Z" fill="#090041"/>
<path d="M736.687 21.2385C743.777 26.9885 748.757 33.0285 752.997 41.1185C753.427 41.9285 753.857 42.7385 754.297 43.5785C756.467 48.0385 757.237 50.1985 755.997 55.1185C755.057 57.3285 755.057 57.3285 753.937 59.5385C753.327 60.7285 753.327 60.7285 752.717 61.9485C752.287 62.7685 751.867 63.5885 751.437 64.4285C751.017 65.2585 750.587 66.0985 750.147 66.9585C749.107 69.0085 748.057 71.0685 746.997 73.1185C738.277 72.2285 727.767 67.2085 721.807 60.7285C720.877 59.2385 719.997 57.7285 719.167 56.1885C716.027 50.6185 710.227 46.9785 704.347 44.8085C699.677 43.8385 695.127 43.7185 690.377 43.6785C689.477 43.6685 688.587 43.6585 687.667 43.6485C678.927 43.7585 672.327 45.9385 665.997 52.1185C662.917 57.0285 663.087 62.5285 663.997 68.1185C670.777 81.2385 688.657 85.0285 701.537 89.2885C722.957 96.4085 748.617 106.328 759.567 127.678C766.827 142.998 767.247 160.728 762.257 176.848C756.387 192.078 745.077 202.338 730.627 209.358C709.207 218.838 684.037 218.688 662.187 210.798C651.897 206.558 643.937 200.898 635.997 193.118C635.227 192.378 634.447 191.638 633.647 190.878C628.867 185.988 625.507 180.858 622.437 174.798C622.087 174.118 621.747 173.438 621.387 172.738C619.627 169.068 618.567 166.198 618.997 162.118C624.237 160.058 629.487 158.018 634.737 155.998C636.647 155.248 638.557 154.488 640.467 153.718C641.407 153.358 642.347 152.988 643.307 152.618C644.117 152.298 644.917 151.978 645.737 151.648C648.587 150.978 650.247 151.098 652.997 152.118C654.517 154.078 654.517 154.078 655.807 156.618C662.077 167.738 670.417 175.478 682.817 179.288C687.177 180.278 691.417 180.458 695.877 180.428C697.057 180.418 697.057 180.418 698.267 180.408C707.077 180.228 714.357 178.588 721.307 172.908C725.507 168.448 727.607 162.278 728.097 156.218C727.737 148.258 724.587 142.598 718.997 137.118C716.717 135.478 714.707 134.198 712.247 132.928C711.557 132.558 710.857 132.198 710.147 131.818C700.717 127.128 690.607 123.918 680.637 120.628C662.407 114.538 641.937 106.478 631.997 89.1185C625.797 76.2985 623.257 61.5985 627.127 47.5485C632.887 32.2285 642.407 21.7085 657.067 14.3585C682.247 3.85849 714.347 4.62848 736.687 21.2385Z" fill="#FF0000"/>
<path d="M1343 22.1135C1351.94 29.7935 1358.71 38.6935 1362 50.1135C1361.57 53.6235 1360.53 56.4035 1358.93 59.5435C1358.33 60.7335 1358.33 60.7335 1357.71 61.9535C1357.29 62.7635 1356.87 63.5835 1356.44 64.4235C1356.01 65.2635 1355.59 66.0935 1355.15 66.9635C1354.11 69.0135 1353.06 71.0635 1352 73.1135C1343.34 71.9635 1332.25 66.9735 1326.62 60.2835C1325.56 58.4235 1324.54 56.5435 1323.57 54.6335C1319.9 48.7235 1312.52 45.8135 1306 44.1135C1296.34 43.1535 1284.23 42.0435 1275.79 47.5035C1271.84 51.0535 1269.47 54.3435 1268.57 59.6435C1268.29 65.2835 1269.16 68.7735 1273 73.1135C1280.82 80.7535 1291.12 84.0135 1301.31 87.3635C1322.02 94.3635 1341.13 101.604 1357 117.114C1357.58 117.644 1358.15 118.174 1358.75 118.714C1367.84 127.924 1370.94 143.384 1371.03 155.804C1370.33 173.154 1364.53 187.104 1352 199.114C1333.32 214.274 1310.23 218.214 1286.74 215.894C1268.77 213.454 1253.83 205.694 1241 193.114C1240.31 192.464 1239.62 191.804 1238.91 191.134C1234.29 186.404 1231.12 181.144 1228 175.364C1227.6 174.634 1227.2 173.894 1226.79 173.144C1224.83 169.344 1223.45 166.504 1224 162.114C1229.24 160.064 1234.48 158.024 1239.73 155.994C1241.65 155.254 1243.56 154.484 1245.47 153.724C1246.41 153.354 1247.35 152.994 1248.31 152.614C1249.11 152.294 1249.91 151.974 1250.74 151.644C1253.59 150.974 1255.24 151.104 1258 152.114C1259.55 154.114 1259.55 154.114 1260.88 156.674C1266.87 167.324 1274.93 174.764 1286.56 179.054C1297.87 181.964 1311.97 181.614 1322.23 175.864C1328.31 171.794 1330.74 166.894 1333 160.114C1334.05 152.764 1332.08 147.214 1328 141.114C1319.64 130.844 1303.39 126.554 1291.25 122.424C1288.59 121.514 1285.93 120.584 1283.27 119.664C1282.63 119.444 1282 119.224 1281.34 118.994C1262.55 112.444 1244.22 103.874 1235 85.1135C1229.59 71.8935 1228.92 57.5135 1233.75 44.0335C1240.09 29.2035 1251.04 19.4335 1265.62 12.9235C1290.79 3.58353 1321.28 5.91353 1343 22.1135Z" fill="#FF0000"/>
<path d="M1170.82 20.3869C1182.1 29.3069 1190.03 37.9869 1196 51.1169C1191.93 55.8269 1185.66 57.8069 1180.13 60.3669C1178.94 60.9269 1177.76 61.4969 1176.54 62.0869C1175.4 62.6169 1174.25 63.1469 1173.07 63.6869C1171.51 64.4269 1171.51 64.4269 1169.91 65.1769C1166.71 66.2069 1165.16 66.2269 1162 65.1169C1159.83 62.8169 1159.83 62.8169 1157.69 59.9269C1153.87 55.0669 1150.34 51.2569 1145 48.1169C1143.97 47.4969 1143.97 47.4969 1142.91 46.8669C1134.14 42.5369 1123.01 42.7569 1113.61 44.8769C1108.61 46.5969 1104.16 48.8069 1100 52.1169C1099.2 52.7269 1099.2 52.7269 1098.37 53.3569C1087.07 63.1169 1082.06 80.9269 1080 95.1169C1078.53 121.797 1079.39 147.347 1097.44 168.737C1105.21 176.757 1113.91 180.017 1124.94 180.427C1134.9 180.147 1143.27 176.307 1151 170.117C1154.61 166.297 1157.87 162.307 1160.29 157.627C1162.3 154.677 1163.8 153.867 1167.04 152.437C1168.01 152.007 1168.99 151.567 1169.99 151.117C1171.01 150.687 1172.02 150.247 1173.07 149.797C1174.09 149.347 1175.1 148.897 1176.15 148.427C1183.67 145.117 1183.67 145.117 1186 145.117C1187.71 148.667 1189.39 152.227 1191.07 155.797C1191.55 156.807 1192.04 157.817 1192.54 158.857C1192.99 159.827 1193.45 160.807 1193.91 161.817C1194.34 162.707 1194.76 163.607 1195.2 164.527C1196.5 168.717 1195.35 171.357 1193.54 175.247C1188.66 184.007 1183.12 191.057 1176 198.117C1175.44 198.707 1174.88 199.297 1174.31 199.907C1166.11 207.897 1153.04 212.967 1142 215.117C1140.68 215.387 1140.68 215.387 1139.32 215.667C1117.92 218.567 1094.74 214.967 1077 202.117C1056.24 185.827 1045.56 160.867 1042 135.117C1038.89 99.7669 1042.63 62.8369 1065.4 34.0869C1071.9 26.3569 1079.23 21.0469 1088 16.1169C1088.75 15.6869 1089.49 15.2569 1090.26 14.8169C1113.88 2.81685 1149.4 5.05685 1170.82 20.3869Z" fill="#FF0000"/>
<path d="M784 12.1134C802.26 11.7734 820.51 11.4934 838.77 11.3334C847.25 11.2634 855.72 11.1534 864.2 10.9834C871.59 10.8334 878.99 10.7334 886.39 10.7034C890.3 10.6834 894.21 10.6334 898.12 10.5234C925.03 9.80341 925.03 9.80341 933.61 17.3834C939.53 23.5634 939.53 23.5634 941 27.1134C940 31.1134 940 31.1134 925 46.1134C909.16 46.1134 893.32 46.1134 877 46.1134C877 100.893 877 155.673 877 212.113C865.12 212.113 853.24 212.113 841 212.113C841 157.333 841 102.553 841 46.1134C822.19 46.1134 803.38 46.1134 784 46.1134C784 34.8934 784 23.6734 784 12.1134Z" fill="#FF0000"/>
<path d="M0 12.1135C11.88 12.1135 23.76 12.1135 36 12.1135C36 66.8935 36 121.674 36 178.114C63.39 178.114 90.78 178.114 119 178.114C122.65 181.034 125.77 183.804 129 187.114C129.91 187.934 130.81 188.764 131.75 189.614C134.3 192.444 135 193.334 135 197.114C131.86 203.444 126.12 208.744 120 212.114C111.07 214.704 101.48 213.864 92.29 213.574C89.92 213.554 87.55 213.544 85.18 213.534C76.47 213.454 67.77 213.244 59.06 213.054C39.57 212.744 20.08 212.434 0 212.114C0 146.114 0 80.1135 0 12.1135Z" fill="#FF0000"/>
<path d="M969 12.1135C980.88 12.1135 992.76 12.1135 1005 12.1135C1005 78.1135 1005 144.114 1005 212.114C993.12 212.114 981.24 212.114 969 212.114C969 146.114 969 80.1135 969 12.1135Z" fill="#FF0000"/>
<path d="M550 12.1135C561.88 12.1135 573.76 12.1135 586 12.1135C586 78.1135 586 144.114 586 212.114C574.12 212.114 562.24 212.114 550 212.114C550 146.114 550 80.1135 550 12.1135Z" fill="#FF0000"/>
<path d="M244 9.11353C250.51 9.11353 254.7 9.46353 260.69 11.1735C261.47 11.4035 262.26 11.6235 263.06 11.8535C282.15 17.5835 296.63 30.0835 306.5 47.2335C313.63 60.8935 319.36 75.6835 321 91.1135C321.17 92.1035 321.17 92.1035 321.33 93.1135C321.72 96.8835 321.58 99.2235 319.47 102.444C317.33 104.844 315.1 107.044 312.75 109.234C311.97 110.014 311.2 110.794 310.39 111.594C306.1 115.754 306.1 115.754 304 117.114C297.49 116.744 291.91 109.394 287.73 104.984C281.88 98.0735 280.96 90.1535 279.49 81.4935C277.14 70.0335 269.7 57.9635 260.04 51.3535C254.81 48.1735 249.84 46.0635 244 44.1135C244 32.5635 244 21.0135 244 9.11353Z" fill="#FF0000"/>
<path d="M226.154 10.5537C228.414 12.5637 230.494 14.6637 232.564 16.8637C233.294 17.5937 234.034 18.3237 234.794 19.0737C238.734 23.1337 238.734 23.1337 240.004 25.1137C239.814 27.2937 239.814 27.2937 239.004 29.1137C237.674 29.7937 236.344 30.4637 235.004 31.1137C234.704 31.7037 234.414 32.2937 234.114 32.8937C230.084 40.9237 222.924 44.9337 214.854 47.9537C202.644 52.9137 194.754 64.4837 189.744 76.2037C186.874 83.5837 185.294 91.3237 184.004 99.1137C171.464 99.1137 158.924 99.1137 146.004 99.1137C147.184 84.9637 147.184 84.9637 148.684 78.8037C148.864 78.0837 149.034 77.3737 149.214 76.6337C153.544 59.6337 161.604 42.7137 174.004 30.1137C174.664 30.1137 175.324 30.1137 176.004 30.1137C176.194 29.5437 176.394 28.9737 176.604 28.3937C178.554 25.2237 181.284 23.6037 184.374 21.6737C185.004 21.2837 185.624 20.8837 186.274 20.4837C195.464 14.8337 215.784 3.61374 226.154 10.5537Z" fill="#FF0000"/>
<path d="M284 125.114C296.21 125.114 308.42 125.114 321 125.114C321 131.384 320.66 136.164 319.38 142.114C319.2 142.944 319.02 143.764 318.83 144.614C313.38 168.684 301.95 190.334 281 204.114C271.23 209.744 255.69 217.934 244 215.114C240.72 212.924 238.13 210.224 235.44 207.364C234.7 206.634 233.97 205.904 233.21 205.154C229.27 201.094 229.27 201.094 228 199.114C228.3 194.124 232.48 191.014 235.81 187.674C236.49 186.994 237.16 186.324 237.86 185.624C242.64 181.004 247 178.214 253.35 176.064C263.93 172.264 270.96 162.284 275.59 152.534C279.26 143.654 281.67 134.424 284 125.114Z" fill="#FF0000"/>
</svg>
